<?xml version="1.0" encoding="UTF-8"?>
<svg width="514px" height="327px" viewBox="0 0 514 327" version="1.1" xmlns="http://www.w3.org/2000/svg" xmlns:xlink="http://www.w3.org/1999/xlink">
    <!-- Generator: Sketch 63.1 (92452) - https://sketch.com -->
    <title>Group 2</title>
    <desc>Created with Sketch.</desc>
    <g id="Page-1" stroke="none" stroke-width="1" fill="none" fill-rule="evenodd">
        <g id="Group-2" transform="translate(-3.000000, 0.000000)">
            <g id="logo1" transform="translate(140.000000, 0.000000)" fill-rule="nonzero">
                <polygon id="Path" fill="#E1E6E9" points="120 62 87 9.09557449 92.620396 6 120 48.8066368 147.379604 6 153 9.09557449"></polygon>
                <path d="M120.000273,45 C112.820423,45 107,50.8203007 107,58 L133,58 C133.000546,50.8203007 127.180123,45 120.000273,45 Z" id="Path" fill="#64798A"></path>
                <path d="M16,224 L16,243.370538 C16,248.688606 20.3189117,253 25.6462536,253 L215.353746,253 C220.681088,253 225,248.688606 225,243.370538 L225,224 L16,224 Z" id="Path" fill="#3A556A"></path>
                <path d="M234.259643,238 L6.74089636,238 C3.01796537,238 0,234.991084 0,231.279317 L0,71.7206829 C0,68.0089156 3.01796537,65 6.74089636,65 L234.259104,65 C237.982035,65 241,68.0089156 241,71.7206829 L241,231.279317 C241,234.991084 237.982035,238 234.259643,238 Z" id="Path" fill="#64798A"></path>
                <path d="M176,90.6137098 L176,212.38629 C176,217.705887 171.685167,222 166.339903,222 L24.6600974,222 C19.3148327,222 15,217.705887 15,212.38629 L15,90.6137098 C15,85.2946512 19.3148327,81 24.6600974,81 L166.339903,81 C171.685167,81 176,85.2946512 176,90.6137098 Z" id="Path" fill="#EBF0F3"></path>
                <rect id="Rectangle" fill="#2D3585" x="80" y="81" width="34" height="141"></rect>
                <rect id="Rectangle" fill="#4D3A81" x="47" y="81" width="34" height="141"></rect>
                <path d="M48,81 L48,222 L24.2001713,222 C18.5560651,222 14,217.705871 14,212.386254 L14,90.6137465 C14,85.2946676 18.5560651,81 24.2001713,81 L48,81 Z" id="Path" fill="#784284"></path>
                <rect id="Rectangle" fill="#0C1640" x="113" y="81" width="34" height="141"></rect>
                <path d="M180,90.6137098 L180,212.38629 C180,217.705887 175.444011,222 169.8,222 L146,222 L146,81 L169.8,81 C175.444011,81 180,85.2946512 180,90.6137098 Z" id="Path" fill="#1A2653"></path>
                <path d="M228,115.5 C228,124.925164 221.305005,132.790022 212.432757,134.610197 C211.165059,134.870066 209.832939,135 208.500273,135 C207.167607,135 205.835487,134.870066 204.567789,134.610197 C195.694995,132.790022 189,124.925164 189,115.5 C189,106.042626 195.694995,98.2105241 204.567789,96.3903494 C205.834941,96.1299345 207.167607,96 208.500273,96 C209.832939,96 211.165059,96.1299345 212.432757,96.3903494 C221.305005,98.2105241 228,106.042626 228,115.5 Z" id="Path" fill="#3A556A"></path>
                <g id="Group" transform="translate(189.000000, 157.000000)" fill="#D5D6DB">
                    <rect id="Rectangle" x="0.0790833333" y="0.0827555556" width="38.6950417" height="4.86134444"></rect>
                    <rect id="Rectangle" x="0.0790833333" y="14.6667889" width="38.6950417" height="4.86134444"></rect>
                    <rect id="Rectangle" x="0.0790833333" y="29.2470111" width="38.6950417" height="4.86134444"></rect>
                    <rect id="Rectangle" x="0.0790833333" y="43.8337667" width="38.6950417" height="4.86134444"></rect>
                </g>
                <path d="M152,65 L88,65 L88,61.9925528 C88,58.1306344 91.0054343,55 94.712907,55 L145.287093,55 C148.994566,55 152,58.1306344 152,61.9925528 L152,65 Z" id="Path" fill="#3A556A"></path>
                <g id="Group" transform="translate(83.000000, 0.000000)" fill="#64798A">
                    <ellipse id="Oval" cx="67.5842391" cy="7.44055556" rx="7.27880435" ry="7.44055556"></ellipse>
                    <ellipse id="Oval" cx="7.58152174" cy="7.44055556" rx="7.27880435" ry="7.44055556"></ellipse>
                </g>
                <path d="M204.006799,123.578327 C203.957361,124.061479 204.180361,124.531744 204.583625,124.794742 C204.986889,125.057739 205.501914,125.068795 205.91582,124.823338 L217.369949,117.245011 C217.765522,116.956823 218,116.493484 218,116 C218,115.506516 217.765522,115.043177 217.369949,114.754989 L205.91582,107.176662 C205.501914,106.931205 204.986889,106.942261 204.583625,107.205258 C204.180361,107.468256 203.957361,107.938521 204.006799,108.421673 L204.006799,123.578327 Z" id="Shape" fill="#64798A"></path>
                <g id="planet" transform="translate(70.000000, 120.000000)">
                    <path d="M57.6868896,5.27903823 C61.7981327,9.32878588 60.0634931,16.6620416 55.3557586,24.6720106 L55.3557586,24.6733271 C53.8491427,27.2090684 52.1918694,29.6551032 50.392576,31.9986834 L50.3912386,32 C49.6784414,31.0002687 48.634356,30.275968 47.4382052,29.951428 C49.9819867,26.6139409 52.0509825,23.4002108 53.55826,20.4787576 C56.5701401,14.6345346 57.3324721,9.95810298 55.1350836,7.79235691 C52.937695,5.62661085 48.1885004,6.3783683 42.255685,9.34721776 C40.8918081,8.63657148 39.467916,8.04365393 38,7.57512402 C46.1315414,2.93818929 53.5756465,1.22797401 57.6868896,5.27903823 Z" id="Path" fill="#FFE578"></path>
                    <path d="M54.6836915,24 C57.8000415,33.5582604 55.2852278,44.0559173 48.175621,51.1668205 C41.0660141,58.2777236 30.5649565,60.798311 21,57.6898328 C27.2650452,54.0634829 33.9431848,48.6483624 39.7938158,42.7966024 C40.9723887,41.6185993 42.1324845,40.4062982 43.2635449,39.1715716 L43.2635449,39.1702525 C45.213944,40.0660456 47.5127913,39.6925183 49.0788743,38.2253511 C50.6449573,36.7581838 51.1665497,34.4894138 50.398332,32.4861073 C50.2427967,32.0801359 50.0365984,31.6954185 49.7846294,31.341083 L49.7859492,31.3397639 C51.5615186,28.9915743 53.1969405,26.5407286 54.6836915,24 L54.6836915,24 Z" id="Path" fill="#A0EAEA"></path>
                    <path d="M4.36867888,40.9417748 C1.19276074,31.440267 3.64162373,20.9609752 10.6999651,13.8486315 C17.7583065,6.7362879 28.2226844,4.20354168 37.75455,7.30047373 C39.1929525,7.76662054 40.5882162,8.35652232 41.9246714,9.06355403 C46.640732,11.5656746 50.4980827,15.4233398 52.9986895,20.1384752 L53,20.1384752 C51.5230274,23.045069 49.4956303,26.2424531 47.0029933,29.5629646 C45.0200362,29.0211924 42.9032325,29.6873083 41.5884775,31.2668047 C40.2737226,32.8463012 40.0034725,35.0479005 40.8972122,36.898217 C39.8042262,38.0915053 38.6636242,39.2834838 37.4754061,40.4741525 C30.4443875,47.5055158 23.1696095,52.938842 17.143771,56 C12.4272612,53.4983285 8.57010423,49.6399441 6.07106344,44.923769 C5.39466362,43.6456514 4.82525862,42.3137741 4.36867888,40.9417748 L4.36867888,40.9417748 Z" id="Path" fill="#A0EAEA"></path>
                    <path d="M50.6284982,32.5157345 C51.676964,35.2262158 50.4354812,38.2846133 47.7944854,39.4973352 C45.1534896,40.7100572 42.0248397,39.6583861 40.6525148,37.096618 C39.28019,34.5348498 40.138014,31.3474885 42.6107248,29.820623 C45.0834357,28.2937575 48.3172785,28.95457 49.992826,31.3291023 C50.2538151,31.6963136 50.467395,32.0950109 50.6284982,32.5157345 Z" id="Path" fill="#FE8700"></path>
                    <path d="M43,39.436276 L43,39.4375644 C41.8906358,40.643463 40.7527933,41.8274597 39.596828,42.9779591 C33.8584251,48.6930942 27.308387,53.9817844 21.1635193,57.5234675 C13.2931178,62.0610477 6.08937041,63.7333302 2.10886308,59.7703556 C-1.77326423,55.9027191 0.117962181,48.593891 4.42597141,40.9771465 C4.87695571,42.3266121 5.43938259,43.6366147 6.10749305,44.8937404 C3.18974881,50.6140289 2.45319315,55.1915481 4.58001381,57.3096009 C6.70683448,59.4276536 11.3022169,58.6932923 17.0445033,55.7880556 C22.9964944,52.7771741 30.1821192,47.4330847 37.1269718,40.5172044 C38.2997652,39.348668 39.426389,38.1762665 40.5068432,37 C41.0301213,38.0743883 41.9110934,38.9352613 43,39.436276 L43,39.436276 Z" id="Path" fill="#FFE578"></path>
                    <path d="M14.4950665,51.293374 C12.6477224,49.4175125 11.0880525,47.27013 9.86827362,44.92312 C9.20327673,43.6449276 8.64347091,42.3129723 8.19458832,40.9408926 C5.64469575,33.1787894 6.75978608,24.6547574 11.2165707,17.8400964 C15.6733553,11.0254354 22.9733022,6.68242743 31,6.07020377 C18.6850788,5.16197991 7.42814239,13.1489415 4.01832368,25.2140991 C0.608504962,37.2792567 5.97823353,50.1233412 16.8889905,56 C17.5437764,55.661598 18.2131646,55.2940279 18.8971551,54.8972898 C17.3061547,53.8610382 15.8301902,52.652691 14.4950665,51.293374 L14.4950665,51.293374 Z" id="Path" fill="#81CCCA"></path>
                    <path d="M14.1747288,48 C13.9557404,48.0002359 13.7456905,47.9117022 13.5910739,47.7539954 C12.265242,46.4057906 11.1005955,44.9030916 10.1213254,43.277111 C9.88355515,42.8817218 10.0059909,42.3651792 10.3947933,42.1233808 C10.7835957,41.8815824 11.2915331,42.0060924 11.5293034,42.4014816 C12.44067,43.914596 13.5245334,45.3129859 14.7583837,46.5676091 C14.9943355,46.8076307 15.0648797,47.1685588 14.9371225,47.4820973 C14.8093652,47.7956357 14.5084654,48 14.1747288,48 L14.1747288,48 Z" id="Path" fill="#68B5B1"></path>
                    <path d="M8.65713139,38 C8.26592279,37.9998569 7.92393768,37.7623937 7.82437512,37.4217613 C6.57547217,33.1729681 6.74880151,28.6866378 8.32259309,24.5262505 C8.47571427,24.1206522 8.96503158,23.9036114 9.41551391,24.0414763 C9.86599623,24.1793411 10.1070551,24.619905 9.95393391,25.0255033 C8.4893248,28.897334 8.32808316,33.0724998 9.49046197,37.0265734 C9.55820429,37.2592797 9.50233442,37.5071144 9.3391853,37.6976258 C9.17603617,37.8881373 8.92403233,37.9998108 8.65684423,38 L8.65713139,38 Z" id="Path" fill="#68B5B1"></path>
                    <path d="M6.79279045,3.57120004 C6.67910289,3.23009924 6.35973933,3 6,3 C5.64026067,3 5.32089711,3.23009924 5.20720955,3.57120004 C4.78990647,4.81400315 3.81432812,5.78977709 2.57112039,6.2078177 C2.2300314,6.32156646 2,6.64063545 2,7 C2,7.35936455 2.2300314,7.67843354 2.57112039,7.7921823 C3.81436332,8.21016619 4.78996325,9.18596172 5.20720955,10.4288 C5.32089711,10.7699008 5.64026067,11 6,11 C6.35973933,11 6.67910289,10.7699008 6.79279045,10.4288 C7.21001782,9.18595 8.18562495,8.21014728 9.42887961,7.7921823 C9.7699686,7.67843354 10,7.35936455 10,7 C10,6.64063545 9.7699686,6.32156646 9.42887961,6.2078177 C8.18563668,5.78983381 7.21003675,4.81403828 6.79279045,3.57120004 Z" id="Path" fill="#FFFFFF"></path>
                    <path d="M55.4286907,57.2077343 C54.1855753,56.7897352 53.2100723,55.8139856 52.7928325,54.57121 C52.6791489,54.2301032 52.3597964,54 52.0000696,54 C51.6403428,54 51.3209904,54.2301032 51.2073068,54.57121 C50.7900949,55.8140518 49.8145131,56.7898287 48.5713093,57.2077343 C48.2301254,57.3214209 48,57.6405482 48,58 C48,58.3594518 48.2301254,58.6785791 48.5713093,58.7922657 C49.8144896,59.2102091 50.7900571,60.1859716 51.2073068,61.42879 C51.3209904,61.7698968 51.6403428,62 52.0000696,62 C52.3597964,62 52.6791489,61.7698968 52.7928325,61.42879 C53.2100544,60.185973 54.1855559,59.2101734 55.4286907,58.7921265 C55.7698746,58.6784399 56,58.3593126 56,57.9998608 C56,57.640409 55.7698746,57.3212817 55.4286907,57.2075951 L55.4286907,57.2077343 Z" id="Path" fill="#FFFFFF"></path>
                    <path d="M12.1143702,0.925605511 C11.8820403,1.48609242 12.0102453,2.13134392 12.4391956,2.56044111 C12.868146,2.9895383 13.5133536,3.1179642 14.07392,2.88582621 C14.6344864,2.65368823 15,2.10670935 15,1.49997814 C14.9989398,0.672203062 14.3283101,0.00134366085 13.5005354,-8.8437782e-08 C12.8938042,-0.000207607236 12.3467002,0.365118599 12.1143702,0.925605511 Z" id="Path" fill="#FFFFFF"></path>
                    <path d="M63.1598325,10 C62.7000914,10 62.3257119,9.64051928 62.3197352,9.19325036 C62.2767502,5.96284607 61.2441306,3.34084163 59.2507198,1.39984722 C59.0356845,1.19385938 58.9507198,0.891483972 59.028135,0.607705218 C59.1055502,0.323926464 59.3334507,0.102346689 59.6251727,0.0272259707 C59.9168947,-0.0478947476 60.2276155,0.0349858161 60.4391774,0.244350694 C62.7529454,2.49662894 63.9509241,5.50048398 63.9999298,9.17172614 C64.0028078,9.38848955 63.9170652,9.59748723 63.7615645,9.75274207 C63.6060639,9.90799691 63.3935429,9.99679124 63.1707538,9.99959131 L63.1598325,10 Z" id="Path" fill="#CCD3DF"></path>
                    <path d="M61.697325,18 C61.4737998,17.9995253 61.2639688,17.8764588 61.1328424,17.6689293 C61.0017159,17.4613998 60.9651283,17.1944677 61.0344153,16.9508347 C61.2623632,16.1527279 61.4608872,15.3642207 61.6246375,14.6075791 C61.7174509,14.1787258 62.0959423,13.9173285 62.4700218,14.0237318 C62.8441013,14.1301352 63.0721125,14.5640464 62.9792992,14.9928996 C62.8074079,15.7872733 62.599231,16.6135126 62.3608161,17.4486849 C62.2669729,17.777655 61.9992337,18.0001276 61.697325,18 L61.697325,18 Z" id="Path" fill="#CCD3DF"></path>
                    <path d="M43.1143948,63.9255462 C42.882032,64.4860448 43.0102288,65.1313274 43.4391956,65.5604411 C43.8681625,65.9895548 44.5134012,66.1179726 45.0739793,65.8858017 C45.6345574,65.6536308 46.0000519,65.1066044 46,64.4998498 C45.9988693,63.6721749 45.3283383,63.0014142 44.5006637,62.9999999 C43.8939092,62.9997405 43.3467577,63.3650477 43.1143948,63.9255462 Z" id="Path" fill="#FFFFFF"></path>
                </g>
            </g>
            <text id="SPACEFLIX" font-family="SpaceAge, Space Age" font-size="72" font-weight="normal" fill="#FFFFFF">
                <tspan x="0.472" y="332">SPACEFLIX</tspan>
            </text>
        </g>
    </g>
</svg>